<mxfile host="app.diagrams.net" modified="2024-05-14T09:40:58.155Z" agent="Mozilla/5.0 (Windows NT 10.0; Win64; x64; rv:125.0) Gecko/20100101 Firefox/125.0" etag="2M2eUwMQ_g_4oI7Hv0eE" version="24.3.1" type="device">
  <diagram id="R2lEEEUBdFMjLlhIrx00" name="Page-1">
    <mxGraphModel dx="2330" dy="1176" grid="1" gridSize="10" guides="1" tooltips="1" connect="1" arrows="1" fold="1" page="1" pageScale="1" pageWidth="850" pageHeight="1100" math="0" shadow="0" extFonts="Permanent Marker^https://fonts.googleapis.com/css?family=Permanent+Marker">
      <root>
        <mxCell id="0" />
        <mxCell id="1" parent="0" />
        <mxCell id="C-vyLk0tnHw3VtMMgP7b-1" value="" style="edgeStyle=entityRelationEdgeStyle;endArrow=ERzeroToMany;startArrow=ERone;endFill=1;startFill=0;entryX=0;entryY=0.5;entryDx=0;entryDy=0;exitX=1;exitY=0.5;exitDx=0;exitDy=0;" parent="1" target="MUCrM97EPWxwLmfavEmk-56" edge="1" source="MUCrM97EPWxwLmfavEmk-14">
          <mxGeometry width="100" height="100" relative="1" as="geometry">
            <mxPoint x="320" y="80" as="sourcePoint" />
            <mxPoint x="449" y="158.01" as="targetPoint" />
          </mxGeometry>
        </mxCell>
        <mxCell id="MUCrM97EPWxwLmfavEmk-33" value="" style="group" parent="1" vertex="1" connectable="0">
          <mxGeometry x="-310" y="20.130000000000003" width="280" height="270" as="geometry" />
        </mxCell>
        <mxCell id="MUCrM97EPWxwLmfavEmk-13" value="Customers" style="shape=table;startSize=30;container=1;collapsible=1;childLayout=tableLayout;fixedRows=1;rowLines=0;fontStyle=1;align=center;resizeLast=1;html=1;" parent="MUCrM97EPWxwLmfavEmk-33" vertex="1">
          <mxGeometry width="280" height="240" as="geometry" />
        </mxCell>
        <mxCell id="MUCrM97EPWxwLmfavEmk-14" value="" style="shape=tableRow;horizontal=0;startSize=0;swimlaneHead=0;swimlaneBody=0;fillColor=none;collapsible=0;dropTarget=0;points=[[0,0.5],[1,0.5]];portConstraint=eastwest;top=0;left=0;right=0;bottom=1;" parent="MUCrM97EPWxwLmfavEmk-13" vertex="1">
          <mxGeometry y="30" width="280" height="30" as="geometry" />
        </mxCell>
        <mxCell id="MUCrM97EPWxwLmfavEmk-15" value="PK" style="shape=partialRectangle;connectable=0;fillColor=none;top=0;left=0;bottom=0;right=0;fontStyle=1;overflow=hidden;whiteSpace=wrap;html=1;" parent="MUCrM97EPWxwLmfavEmk-14" vertex="1">
          <mxGeometry width="30" height="30" as="geometry">
            <mxRectangle width="30" height="30" as="alternateBounds" />
          </mxGeometry>
        </mxCell>
        <mxCell id="MUCrM97EPWxwLmfavEmk-16" value="customerID int NOT NULL " style="shape=partialRectangle;connectable=0;fillColor=none;top=0;left=0;bottom=0;right=0;align=left;spacingLeft=6;fontStyle=5;overflow=hidden;whiteSpace=wrap;html=1;" parent="MUCrM97EPWxwLmfavEmk-14" vertex="1">
          <mxGeometry x="30" width="250" height="30" as="geometry">
            <mxRectangle width="250" height="30" as="alternateBounds" />
          </mxGeometry>
        </mxCell>
        <mxCell id="MUCrM97EPWxwLmfavEmk-17" value="" style="shape=tableRow;horizontal=0;startSize=0;swimlaneHead=0;swimlaneBody=0;fillColor=none;collapsible=0;dropTarget=0;points=[[0,0.5],[1,0.5]];portConstraint=eastwest;top=0;left=0;right=0;bottom=0;" parent="MUCrM97EPWxwLmfavEmk-13" vertex="1">
          <mxGeometry y="60" width="280" height="30" as="geometry" />
        </mxCell>
        <mxCell id="MUCrM97EPWxwLmfavEmk-18" value="" style="shape=partialRectangle;connectable=0;fillColor=none;top=0;left=0;bottom=0;right=0;editable=1;overflow=hidden;whiteSpace=wrap;html=1;" parent="MUCrM97EPWxwLmfavEmk-17" vertex="1">
          <mxGeometry width="30" height="30" as="geometry">
            <mxRectangle width="30" height="30" as="alternateBounds" />
          </mxGeometry>
        </mxCell>
        <mxCell id="MUCrM97EPWxwLmfavEmk-19" value="customerFirstName (VARCHAR(50))" style="shape=partialRectangle;connectable=0;fillColor=none;top=0;left=0;bottom=0;right=0;align=left;spacingLeft=6;overflow=hidden;whiteSpace=wrap;html=1;" parent="MUCrM97EPWxwLmfavEmk-17" vertex="1">
          <mxGeometry x="30" width="250" height="30" as="geometry">
            <mxRectangle width="250" height="30" as="alternateBounds" />
          </mxGeometry>
        </mxCell>
        <mxCell id="MUCrM97EPWxwLmfavEmk-20" value="" style="shape=tableRow;horizontal=0;startSize=0;swimlaneHead=0;swimlaneBody=0;fillColor=none;collapsible=0;dropTarget=0;points=[[0,0.5],[1,0.5]];portConstraint=eastwest;top=0;left=0;right=0;bottom=0;" parent="MUCrM97EPWxwLmfavEmk-13" vertex="1">
          <mxGeometry y="90" width="280" height="30" as="geometry" />
        </mxCell>
        <mxCell id="MUCrM97EPWxwLmfavEmk-21" value="" style="shape=partialRectangle;connectable=0;fillColor=none;top=0;left=0;bottom=0;right=0;editable=1;overflow=hidden;whiteSpace=wrap;html=1;" parent="MUCrM97EPWxwLmfavEmk-20" vertex="1">
          <mxGeometry width="30" height="30" as="geometry">
            <mxRectangle width="30" height="30" as="alternateBounds" />
          </mxGeometry>
        </mxCell>
        <mxCell id="MUCrM97EPWxwLmfavEmk-22" value="customerLastName (VARCHAR(50))" style="shape=partialRectangle;connectable=0;fillColor=none;top=0;left=0;bottom=0;right=0;align=left;spacingLeft=6;overflow=hidden;whiteSpace=wrap;html=1;" parent="MUCrM97EPWxwLmfavEmk-20" vertex="1">
          <mxGeometry x="30" width="250" height="30" as="geometry">
            <mxRectangle width="250" height="30" as="alternateBounds" />
          </mxGeometry>
        </mxCell>
        <mxCell id="MUCrM97EPWxwLmfavEmk-23" value="" style="shape=tableRow;horizontal=0;startSize=0;swimlaneHead=0;swimlaneBody=0;fillColor=none;collapsible=0;dropTarget=0;points=[[0,0.5],[1,0.5]];portConstraint=eastwest;top=0;left=0;right=0;bottom=0;" parent="MUCrM97EPWxwLmfavEmk-13" vertex="1">
          <mxGeometry y="120" width="280" height="30" as="geometry" />
        </mxCell>
        <mxCell id="MUCrM97EPWxwLmfavEmk-24" value="" style="shape=partialRectangle;connectable=0;fillColor=none;top=0;left=0;bottom=0;right=0;editable=1;overflow=hidden;whiteSpace=wrap;html=1;" parent="MUCrM97EPWxwLmfavEmk-23" vertex="1">
          <mxGeometry width="30" height="30" as="geometry">
            <mxRectangle width="30" height="30" as="alternateBounds" />
          </mxGeometry>
        </mxCell>
        <mxCell id="MUCrM97EPWxwLmfavEmk-25" value="customerAddress (VARCHAR(50))" style="shape=partialRectangle;connectable=0;fillColor=none;top=0;left=0;bottom=0;right=0;align=left;spacingLeft=6;overflow=hidden;whiteSpace=wrap;html=1;" parent="MUCrM97EPWxwLmfavEmk-23" vertex="1">
          <mxGeometry x="30" width="250" height="30" as="geometry">
            <mxRectangle width="250" height="30" as="alternateBounds" />
          </mxGeometry>
        </mxCell>
        <mxCell id="MUCrM97EPWxwLmfavEmk-29" value="customerEmail (VARCHAR(100))" style="shape=partialRectangle;connectable=0;fillColor=none;top=0;left=0;bottom=0;right=0;align=left;spacingLeft=6;overflow=hidden;whiteSpace=wrap;html=1;" parent="MUCrM97EPWxwLmfavEmk-33" vertex="1">
          <mxGeometry x="30" y="167.5862068965517" width="250" height="27.931034482758612" as="geometry">
            <mxRectangle width="250" height="30" as="alternateBounds" />
          </mxGeometry>
        </mxCell>
        <mxCell id="MUCrM97EPWxwLmfavEmk-31" value="customerMobileNumber (VARCHAR(15))" style="shape=partialRectangle;connectable=0;fillColor=none;top=0;left=0;bottom=0;right=0;align=left;spacingLeft=6;overflow=hidden;whiteSpace=wrap;html=1;" parent="MUCrM97EPWxwLmfavEmk-33" vertex="1">
          <mxGeometry x="30" y="195.51724137931032" width="250" height="27.931034482758612" as="geometry">
            <mxRectangle width="250" height="30" as="alternateBounds" />
          </mxGeometry>
        </mxCell>
        <mxCell id="MUCrM97EPWxwLmfavEmk-28" value="customerPostcode (VARCHAR(10)) " style="shape=partialRectangle;connectable=0;fillColor=none;top=0;left=0;bottom=0;right=0;align=left;spacingLeft=6;overflow=hidden;whiteSpace=wrap;html=1;" parent="MUCrM97EPWxwLmfavEmk-33" vertex="1">
          <mxGeometry x="30" y="139.65517241379308" width="250" height="27.931034482758612" as="geometry">
            <mxRectangle width="250" height="30" as="alternateBounds" />
          </mxGeometry>
        </mxCell>
        <mxCell id="MUCrM97EPWxwLmfavEmk-34" value="" style="group" parent="1" vertex="1" connectable="0">
          <mxGeometry x="190" y="630" width="290" height="340" as="geometry" />
        </mxCell>
        <mxCell id="MUCrM97EPWxwLmfavEmk-48" value="employeeDrivingLicense (VARCHAR(20))" style="shape=partialRectangle;connectable=0;fillColor=none;top=0;left=0;bottom=0;right=0;align=left;spacingLeft=6;overflow=hidden;whiteSpace=wrap;html=1;" parent="MUCrM97EPWxwLmfavEmk-34" vertex="1">
          <mxGeometry x="36" y="210" width="250" height="30" as="geometry">
            <mxRectangle width="250" height="30" as="alternateBounds" />
          </mxGeometry>
        </mxCell>
        <mxCell id="MUCrM97EPWxwLmfavEmk-49" value="employeeSalary (VARCHAR(20))" style="shape=partialRectangle;connectable=0;fillColor=none;top=0;left=0;bottom=0;right=0;align=left;spacingLeft=6;overflow=hidden;whiteSpace=wrap;html=1;" parent="MUCrM97EPWxwLmfavEmk-34" vertex="1">
          <mxGeometry x="36" y="240" width="250" height="30" as="geometry">
            <mxRectangle width="250" height="30" as="alternateBounds" />
          </mxGeometry>
        </mxCell>
        <mxCell id="MUCrM97EPWxwLmfavEmk-50" value="employeePassportNumber (VARCHAR(20))" style="shape=partialRectangle;connectable=0;fillColor=none;top=0;left=0;bottom=0;right=0;align=left;spacingLeft=6;overflow=hidden;whiteSpace=wrap;html=1;" parent="MUCrM97EPWxwLmfavEmk-34" vertex="1">
          <mxGeometry x="36" y="180" width="250" height="30" as="geometry">
            <mxRectangle width="250" height="30" as="alternateBounds" />
          </mxGeometry>
        </mxCell>
        <mxCell id="XP5Q6bSBfRx1H0UdT-L--2" value="employeeRole (VARCHAR(20))" style="shape=partialRectangle;connectable=0;fillColor=none;top=0;left=0;bottom=0;right=0;align=left;spacingLeft=6;overflow=hidden;whiteSpace=wrap;html=1;" parent="MUCrM97EPWxwLmfavEmk-34" vertex="1">
          <mxGeometry x="36" y="270" width="250" height="30" as="geometry">
            <mxRectangle width="250" height="30" as="alternateBounds" />
          </mxGeometry>
        </mxCell>
        <mxCell id="MUCrM97EPWxwLmfavEmk-35" value="employees" style="shape=table;startSize=30;container=1;collapsible=1;childLayout=tableLayout;fixedRows=1;rowLines=0;fontStyle=1;align=center;resizeLast=1;html=1;" parent="MUCrM97EPWxwLmfavEmk-34" vertex="1">
          <mxGeometry x="10" width="280" height="340" as="geometry" />
        </mxCell>
        <mxCell id="MUCrM97EPWxwLmfavEmk-36" value="" style="shape=tableRow;horizontal=0;startSize=0;swimlaneHead=0;swimlaneBody=0;fillColor=none;collapsible=0;dropTarget=0;points=[[0,0.5],[1,0.5]];portConstraint=eastwest;top=0;left=0;right=0;bottom=1;" parent="MUCrM97EPWxwLmfavEmk-35" vertex="1">
          <mxGeometry y="30" width="280" height="30" as="geometry" />
        </mxCell>
        <mxCell id="MUCrM97EPWxwLmfavEmk-37" value="PK" style="shape=partialRectangle;connectable=0;fillColor=none;top=0;left=0;bottom=0;right=0;fontStyle=1;overflow=hidden;whiteSpace=wrap;html=1;" parent="MUCrM97EPWxwLmfavEmk-36" vertex="1">
          <mxGeometry width="30" height="30" as="geometry">
            <mxRectangle width="30" height="30" as="alternateBounds" />
          </mxGeometry>
        </mxCell>
        <mxCell id="MUCrM97EPWxwLmfavEmk-38" value="employeeID INT NOT NULL" style="shape=partialRectangle;connectable=0;fillColor=none;top=0;left=0;bottom=0;right=0;align=left;spacingLeft=6;fontStyle=5;overflow=hidden;whiteSpace=wrap;html=1;" parent="MUCrM97EPWxwLmfavEmk-36" vertex="1">
          <mxGeometry x="30" width="250" height="30" as="geometry">
            <mxRectangle width="250" height="30" as="alternateBounds" />
          </mxGeometry>
        </mxCell>
        <mxCell id="MUCrM97EPWxwLmfavEmk-39" value="" style="shape=tableRow;horizontal=0;startSize=0;swimlaneHead=0;swimlaneBody=0;fillColor=none;collapsible=0;dropTarget=0;points=[[0,0.5],[1,0.5]];portConstraint=eastwest;top=0;left=0;right=0;bottom=0;" parent="MUCrM97EPWxwLmfavEmk-35" vertex="1">
          <mxGeometry y="60" width="280" height="30" as="geometry" />
        </mxCell>
        <mxCell id="MUCrM97EPWxwLmfavEmk-40" value="" style="shape=partialRectangle;connectable=0;fillColor=none;top=0;left=0;bottom=0;right=0;editable=1;overflow=hidden;whiteSpace=wrap;html=1;" parent="MUCrM97EPWxwLmfavEmk-39" vertex="1">
          <mxGeometry width="30" height="30" as="geometry">
            <mxRectangle width="30" height="30" as="alternateBounds" />
          </mxGeometry>
        </mxCell>
        <mxCell id="MUCrM97EPWxwLmfavEmk-41" value="employeeFirstName (VARCHAR(50))" style="shape=partialRectangle;connectable=0;fillColor=none;top=0;left=0;bottom=0;right=0;align=left;spacingLeft=6;overflow=hidden;whiteSpace=wrap;html=1;" parent="MUCrM97EPWxwLmfavEmk-39" vertex="1">
          <mxGeometry x="30" width="250" height="30" as="geometry">
            <mxRectangle width="250" height="30" as="alternateBounds" />
          </mxGeometry>
        </mxCell>
        <mxCell id="MUCrM97EPWxwLmfavEmk-42" value="" style="shape=tableRow;horizontal=0;startSize=0;swimlaneHead=0;swimlaneBody=0;fillColor=none;collapsible=0;dropTarget=0;points=[[0,0.5],[1,0.5]];portConstraint=eastwest;top=0;left=0;right=0;bottom=0;" parent="MUCrM97EPWxwLmfavEmk-35" vertex="1">
          <mxGeometry y="90" width="280" height="30" as="geometry" />
        </mxCell>
        <mxCell id="MUCrM97EPWxwLmfavEmk-43" value="" style="shape=partialRectangle;connectable=0;fillColor=none;top=0;left=0;bottom=0;right=0;editable=1;overflow=hidden;whiteSpace=wrap;html=1;" parent="MUCrM97EPWxwLmfavEmk-42" vertex="1">
          <mxGeometry width="30" height="30" as="geometry">
            <mxRectangle width="30" height="30" as="alternateBounds" />
          </mxGeometry>
        </mxCell>
        <mxCell id="MUCrM97EPWxwLmfavEmk-44" value="employeeLastName (VARCHAR(50))" style="shape=partialRectangle;connectable=0;fillColor=none;top=0;left=0;bottom=0;right=0;align=left;spacingLeft=6;overflow=hidden;whiteSpace=wrap;html=1;" parent="MUCrM97EPWxwLmfavEmk-42" vertex="1">
          <mxGeometry x="30" width="250" height="30" as="geometry">
            <mxRectangle width="250" height="30" as="alternateBounds" />
          </mxGeometry>
        </mxCell>
        <mxCell id="MUCrM97EPWxwLmfavEmk-45" value="" style="shape=tableRow;horizontal=0;startSize=0;swimlaneHead=0;swimlaneBody=0;fillColor=none;collapsible=0;dropTarget=0;points=[[0,0.5],[1,0.5]];portConstraint=eastwest;top=0;left=0;right=0;bottom=0;" parent="MUCrM97EPWxwLmfavEmk-35" vertex="1">
          <mxGeometry y="120" width="280" height="30" as="geometry" />
        </mxCell>
        <mxCell id="MUCrM97EPWxwLmfavEmk-46" value="" style="shape=partialRectangle;connectable=0;fillColor=none;top=0;left=0;bottom=0;right=0;editable=1;overflow=hidden;whiteSpace=wrap;html=1;" parent="MUCrM97EPWxwLmfavEmk-45" vertex="1">
          <mxGeometry width="30" height="30" as="geometry">
            <mxRectangle width="30" height="30" as="alternateBounds" />
          </mxGeometry>
        </mxCell>
        <mxCell id="MUCrM97EPWxwLmfavEmk-47" value="employeeNIN (VARCHAR(20))" style="shape=partialRectangle;connectable=0;fillColor=none;top=0;left=0;bottom=0;right=0;align=left;spacingLeft=6;overflow=hidden;whiteSpace=wrap;html=1;" parent="MUCrM97EPWxwLmfavEmk-45" vertex="1">
          <mxGeometry x="30" width="250" height="30" as="geometry">
            <mxRectangle width="250" height="30" as="alternateBounds" />
          </mxGeometry>
        </mxCell>
        <mxCell id="F6gitvyjOKPY-e4v-dXt-55" value="outletID (VARCHAR(20))" style="shape=partialRectangle;connectable=0;fillColor=none;top=0;left=0;bottom=0;right=0;align=left;spacingLeft=6;overflow=hidden;whiteSpace=wrap;html=1;" vertex="1" parent="MUCrM97EPWxwLmfavEmk-34">
          <mxGeometry x="37" y="151" width="250" height="30" as="geometry">
            <mxRectangle width="250" height="30" as="alternateBounds" />
          </mxGeometry>
        </mxCell>
        <mxCell id="F6gitvyjOKPY-e4v-dXt-56" value="&lt;b&gt;FK&lt;/b&gt;" style="text;whiteSpace=wrap;html=1;" vertex="1" parent="MUCrM97EPWxwLmfavEmk-34">
          <mxGeometry x="10" y="151" width="50" height="40" as="geometry" />
        </mxCell>
        <mxCell id="MUCrM97EPWxwLmfavEmk-51" value="&#xa;orderPaymentMethod (VARCHAR(20))&#xa;&#xa;" style="group" parent="1" vertex="1" connectable="0">
          <mxGeometry x="516" y="200" width="327.5" height="280" as="geometry" />
        </mxCell>
        <mxCell id="MUCrM97EPWxwLmfavEmk-70" value="" style="group" parent="MUCrM97EPWxwLmfavEmk-51" vertex="1" connectable="0">
          <mxGeometry x="34.06" y="23.8" width="293.44" height="256.2" as="geometry" />
        </mxCell>
        <mxCell id="MUCrM97EPWxwLmfavEmk-65" value="orderDateTime (DATETIME)" style="shape=partialRectangle;connectable=0;fillColor=none;top=0;left=0;bottom=0;right=0;align=left;spacingLeft=6;overflow=hidden;whiteSpace=wrap;html=1;" parent="MUCrM97EPWxwLmfavEmk-70" vertex="1">
          <mxGeometry x="31.44" y="184.41752380952377" width="262" height="30.736253968253962" as="geometry">
            <mxRectangle width="250" height="30" as="alternateBounds" />
          </mxGeometry>
        </mxCell>
        <mxCell id="MUCrM97EPWxwLmfavEmk-108" value="" style="group" parent="MUCrM97EPWxwLmfavEmk-70" vertex="1" connectable="0">
          <mxGeometry y="-12.171263029646672" width="293.44" height="246.47115924371644" as="geometry" />
        </mxCell>
        <mxCell id="MUCrM97EPWxwLmfavEmk-52" value="Orders" style="shape=table;startSize=30;container=1;collapsible=1;childLayout=tableLayout;fixedRows=1;rowLines=0;fontStyle=1;align=center;resizeLast=1;html=1;" parent="MUCrM97EPWxwLmfavEmk-108" vertex="1">
          <mxGeometry x="-2.62" y="-11.5" width="293.44" height="251.5" as="geometry" />
        </mxCell>
        <mxCell id="MUCrM97EPWxwLmfavEmk-53" value="" style="shape=tableRow;horizontal=0;startSize=0;swimlaneHead=0;swimlaneBody=0;fillColor=none;collapsible=0;dropTarget=0;points=[[0,0.5],[1,0.5]];portConstraint=eastwest;top=0;left=0;right=0;bottom=1;" parent="MUCrM97EPWxwLmfavEmk-52" vertex="1">
          <mxGeometry y="30" width="293.44" height="30" as="geometry" />
        </mxCell>
        <mxCell id="MUCrM97EPWxwLmfavEmk-54" value="PK" style="shape=partialRectangle;connectable=0;fillColor=none;top=0;left=0;bottom=0;right=0;fontStyle=1;overflow=hidden;whiteSpace=wrap;html=1;" parent="MUCrM97EPWxwLmfavEmk-53" vertex="1">
          <mxGeometry width="30" height="30" as="geometry">
            <mxRectangle width="30" height="30" as="alternateBounds" />
          </mxGeometry>
        </mxCell>
        <mxCell id="MUCrM97EPWxwLmfavEmk-55" value="orderingID INT NOT NULL" style="shape=partialRectangle;connectable=0;fillColor=none;top=0;left=0;bottom=0;right=0;align=left;spacingLeft=6;fontStyle=5;overflow=hidden;whiteSpace=wrap;html=1;" parent="MUCrM97EPWxwLmfavEmk-53" vertex="1">
          <mxGeometry x="30" width="263.44" height="30" as="geometry">
            <mxRectangle width="263.44" height="30" as="alternateBounds" />
          </mxGeometry>
        </mxCell>
        <mxCell id="MUCrM97EPWxwLmfavEmk-56" value="" style="shape=tableRow;horizontal=0;startSize=0;swimlaneHead=0;swimlaneBody=0;fillColor=none;collapsible=0;dropTarget=0;points=[[0,0.5],[1,0.5]];portConstraint=eastwest;top=0;left=0;right=0;bottom=0;" parent="MUCrM97EPWxwLmfavEmk-52" vertex="1">
          <mxGeometry y="60" width="293.44" height="30" as="geometry" />
        </mxCell>
        <mxCell id="MUCrM97EPWxwLmfavEmk-57" value="&lt;b&gt;FK&lt;/b&gt;" style="shape=partialRectangle;connectable=0;fillColor=none;top=0;left=0;bottom=0;right=0;editable=1;overflow=hidden;whiteSpace=wrap;html=1;" parent="MUCrM97EPWxwLmfavEmk-56" vertex="1">
          <mxGeometry width="30" height="30" as="geometry">
            <mxRectangle width="30" height="30" as="alternateBounds" />
          </mxGeometry>
        </mxCell>
        <mxCell id="MUCrM97EPWxwLmfavEmk-58" value="customerID ( VARCHAR(10))" style="shape=partialRectangle;connectable=0;fillColor=none;top=0;left=0;bottom=0;right=0;align=left;spacingLeft=6;overflow=hidden;whiteSpace=wrap;html=1;" parent="MUCrM97EPWxwLmfavEmk-56" vertex="1">
          <mxGeometry x="30" width="263.44" height="30" as="geometry">
            <mxRectangle width="263.44" height="30" as="alternateBounds" />
          </mxGeometry>
        </mxCell>
        <mxCell id="MUCrM97EPWxwLmfavEmk-59" value="" style="shape=tableRow;horizontal=0;startSize=0;swimlaneHead=0;swimlaneBody=0;fillColor=none;collapsible=0;dropTarget=0;points=[[0,0.5],[1,0.5]];portConstraint=eastwest;top=0;left=0;right=0;bottom=0;" parent="MUCrM97EPWxwLmfavEmk-52" vertex="1">
          <mxGeometry y="90" width="293.44" height="30" as="geometry" />
        </mxCell>
        <mxCell id="MUCrM97EPWxwLmfavEmk-60" value="" style="shape=partialRectangle;connectable=0;fillColor=none;top=0;left=0;bottom=0;right=0;editable=1;overflow=hidden;whiteSpace=wrap;html=1;" parent="MUCrM97EPWxwLmfavEmk-59" vertex="1">
          <mxGeometry width="30" height="30" as="geometry">
            <mxRectangle width="30" height="30" as="alternateBounds" />
          </mxGeometry>
        </mxCell>
        <mxCell id="MUCrM97EPWxwLmfavEmk-61" value="" style="shape=partialRectangle;connectable=0;fillColor=none;top=0;left=0;bottom=0;right=0;align=left;spacingLeft=6;overflow=hidden;whiteSpace=wrap;html=1;" parent="MUCrM97EPWxwLmfavEmk-59" vertex="1">
          <mxGeometry x="30" width="263.44" height="30" as="geometry">
            <mxRectangle width="263.44" height="30" as="alternateBounds" />
          </mxGeometry>
        </mxCell>
        <mxCell id="MUCrM97EPWxwLmfavEmk-62" value="" style="shape=tableRow;horizontal=0;startSize=0;swimlaneHead=0;swimlaneBody=0;fillColor=none;collapsible=0;dropTarget=0;points=[[0,0.5],[1,0.5]];portConstraint=eastwest;top=0;left=0;right=0;bottom=0;" parent="MUCrM97EPWxwLmfavEmk-52" vertex="1">
          <mxGeometry y="120" width="293.44" height="30" as="geometry" />
        </mxCell>
        <mxCell id="MUCrM97EPWxwLmfavEmk-63" value="" style="shape=partialRectangle;connectable=0;fillColor=none;top=0;left=0;bottom=0;right=0;editable=1;overflow=hidden;whiteSpace=wrap;html=1;" parent="MUCrM97EPWxwLmfavEmk-62" vertex="1">
          <mxGeometry width="30" height="30" as="geometry">
            <mxRectangle width="30" height="30" as="alternateBounds" />
          </mxGeometry>
        </mxCell>
        <mxCell id="MUCrM97EPWxwLmfavEmk-64" value="" style="shape=partialRectangle;connectable=0;fillColor=none;top=0;left=0;bottom=0;right=0;align=left;spacingLeft=6;overflow=hidden;whiteSpace=wrap;html=1;" parent="MUCrM97EPWxwLmfavEmk-62" vertex="1">
          <mxGeometry x="30" width="263.44" height="30" as="geometry">
            <mxRectangle width="263.44" height="30" as="alternateBounds" />
          </mxGeometry>
        </mxCell>
        <mxCell id="MUCrM97EPWxwLmfavEmk-68" value="&lt;b&gt;FK&lt;/b&gt;" style="shape=partialRectangle;connectable=0;fillColor=none;top=0;left=0;bottom=0;right=0;editable=1;overflow=hidden;whiteSpace=wrap;html=1;" parent="MUCrM97EPWxwLmfavEmk-108" vertex="1">
          <mxGeometry x="-2.6199999999999997" y="117.98046135765861" width="31.44" height="29.56908722234518" as="geometry">
            <mxRectangle width="30" height="30" as="alternateBounds" />
          </mxGeometry>
        </mxCell>
        <mxCell id="F6gitvyjOKPY-e4v-dXt-24" value="employeeID" style="shape=partialRectangle;connectable=0;fillColor=none;top=0;left=0;bottom=0;right=0;align=left;spacingLeft=6;overflow=hidden;whiteSpace=wrap;html=1;" vertex="1" parent="MUCrM97EPWxwLmfavEmk-108">
          <mxGeometry x="31.44" y="117.98140831255029" width="262" height="30.801132523276227" as="geometry">
            <mxRectangle width="250" height="30" as="alternateBounds" />
          </mxGeometry>
        </mxCell>
        <mxCell id="F6gitvyjOKPY-e4v-dXt-23" value="paymentID" style="text;whiteSpace=wrap;html=1;" vertex="1" parent="MUCrM97EPWxwLmfavEmk-108">
          <mxGeometry x="34.940000000000005" y="82.96755079214745" width="241.04" height="41.06817669770164" as="geometry" />
        </mxCell>
        <mxCell id="F6gitvyjOKPY-e4v-dXt-22" value="&#xa;orderPaymentMethod (VARCHAR(20))&#xa;&#xa;" style="text;whiteSpace=wrap;html=1;" vertex="1" parent="MUCrM97EPWxwLmfavEmk-108">
          <mxGeometry x="31.44" y="147.54598061927618" width="241.04" height="41.06817669770164" as="geometry" />
        </mxCell>
        <mxCell id="F6gitvyjOKPY-e4v-dXt-26" value="&lt;b&gt;FK&lt;/b&gt;" style="shape=partialRectangle;connectable=0;fillColor=none;top=0;left=0;bottom=0;right=0;editable=1;overflow=hidden;whiteSpace=wrap;html=1;" vertex="1" parent="MUCrM97EPWxwLmfavEmk-108">
          <mxGeometry x="-2.6199999999999997" y="82.9713907015655" width="31.44" height="29.56908722234518" as="geometry">
            <mxRectangle width="30" height="30" as="alternateBounds" />
          </mxGeometry>
        </mxCell>
        <mxCell id="MUCrM97EPWxwLmfavEmk-112" value="" style="edgeStyle=entityRelationEdgeStyle;endArrow=ERzeroToMany;startArrow=ERone;endFill=1;startFill=0;exitX=1;exitY=0.5;exitDx=0;exitDy=0;" parent="MUCrM97EPWxwLmfavEmk-51" source="MUCrM97EPWxwLmfavEmk-36" edge="1">
          <mxGeometry width="100" height="100" relative="1" as="geometry">
            <mxPoint x="-78.60000000000001" y="364" as="sourcePoint" />
            <mxPoint x="30" y="140" as="targetPoint" />
            <Array as="points">
              <mxPoint x="539.72" y="284.66666666666663" />
              <mxPoint x="403.47999999999996" y="-88.66666666666664" />
              <mxPoint x="20" y="140" />
              <mxPoint x="277.71999999999997" y="-107.33333333333334" />
              <mxPoint x="246.27999999999997" y="-60.66666666666666" />
              <mxPoint x="340.59999999999997" y="-121.33333333333331" />
              <mxPoint x="403.47999999999996" y="-51.33333333333332" />
              <mxPoint x="110.03999999999999" y="-60.66666666666666" />
            </Array>
          </mxGeometry>
        </mxCell>
        <mxCell id="MUCrM97EPWxwLmfavEmk-72" value="" style="group" parent="1" vertex="1" connectable="0">
          <mxGeometry x="1270" y="350" width="292.5" height="210" as="geometry" />
        </mxCell>
        <mxCell id="MUCrM97EPWxwLmfavEmk-73" value="" style="group" parent="MUCrM97EPWxwLmfavEmk-72" vertex="1" connectable="0">
          <mxGeometry y="8.4" width="292.5" height="174.05714285714288" as="geometry" />
        </mxCell>
        <mxCell id="MUCrM97EPWxwLmfavEmk-74" value="" style="group" parent="MUCrM97EPWxwLmfavEmk-73" vertex="1" connectable="0">
          <mxGeometry x="23" width="262.08000000000004" height="174.05714285714288" as="geometry" />
        </mxCell>
        <mxCell id="MUCrM97EPWxwLmfavEmk-75" value="&lt;strong&gt;Items&lt;/strong&gt;" style="shape=table;startSize=30;container=1;collapsible=1;childLayout=tableLayout;fixedRows=1;rowLines=0;fontStyle=1;align=center;resizeLast=1;html=1;" parent="MUCrM97EPWxwLmfavEmk-74" vertex="1">
          <mxGeometry y="1.6" width="262.08000000000004" height="175.00000000000003" as="geometry" />
        </mxCell>
        <mxCell id="MUCrM97EPWxwLmfavEmk-76" value="" style="shape=tableRow;horizontal=0;startSize=0;swimlaneHead=0;swimlaneBody=0;fillColor=none;collapsible=0;dropTarget=0;points=[[0,0.5],[1,0.5]];portConstraint=eastwest;top=0;left=0;right=0;bottom=1;" parent="MUCrM97EPWxwLmfavEmk-75" vertex="1">
          <mxGeometry y="30" width="262.08000000000004" height="30" as="geometry" />
        </mxCell>
        <mxCell id="MUCrM97EPWxwLmfavEmk-77" value="PK" style="shape=partialRectangle;connectable=0;fillColor=none;top=0;left=0;bottom=0;right=0;fontStyle=1;overflow=hidden;whiteSpace=wrap;html=1;" parent="MUCrM97EPWxwLmfavEmk-76" vertex="1">
          <mxGeometry width="30" height="30" as="geometry">
            <mxRectangle width="30" height="30" as="alternateBounds" />
          </mxGeometry>
        </mxCell>
        <mxCell id="MUCrM97EPWxwLmfavEmk-78" value="itemID&amp;nbsp; INT NOT NULL" style="shape=partialRectangle;connectable=0;fillColor=none;top=0;left=0;bottom=0;right=0;align=left;spacingLeft=6;fontStyle=5;overflow=hidden;whiteSpace=wrap;html=1;" parent="MUCrM97EPWxwLmfavEmk-76" vertex="1">
          <mxGeometry x="30" width="232.08000000000004" height="30" as="geometry">
            <mxRectangle width="232.08000000000004" height="30" as="alternateBounds" />
          </mxGeometry>
        </mxCell>
        <mxCell id="MUCrM97EPWxwLmfavEmk-79" value="" style="shape=tableRow;horizontal=0;startSize=0;swimlaneHead=0;swimlaneBody=0;fillColor=none;collapsible=0;dropTarget=0;points=[[0,0.5],[1,0.5]];portConstraint=eastwest;top=0;left=0;right=0;bottom=0;" parent="MUCrM97EPWxwLmfavEmk-75" vertex="1">
          <mxGeometry y="60" width="262.08000000000004" height="30" as="geometry" />
        </mxCell>
        <mxCell id="MUCrM97EPWxwLmfavEmk-80" value="" style="shape=partialRectangle;connectable=0;fillColor=none;top=0;left=0;bottom=0;right=0;editable=1;overflow=hidden;whiteSpace=wrap;html=1;" parent="MUCrM97EPWxwLmfavEmk-79" vertex="1">
          <mxGeometry width="30" height="30" as="geometry">
            <mxRectangle width="30" height="30" as="alternateBounds" />
          </mxGeometry>
        </mxCell>
        <mxCell id="MUCrM97EPWxwLmfavEmk-81" value="itemName (VARCHAR(100))" style="shape=partialRectangle;connectable=0;fillColor=none;top=0;left=0;bottom=0;right=0;align=left;spacingLeft=6;overflow=hidden;whiteSpace=wrap;html=1;" parent="MUCrM97EPWxwLmfavEmk-79" vertex="1">
          <mxGeometry x="30" width="232.08000000000004" height="30" as="geometry">
            <mxRectangle width="232.08000000000004" height="30" as="alternateBounds" />
          </mxGeometry>
        </mxCell>
        <mxCell id="MUCrM97EPWxwLmfavEmk-82" value="" style="shape=tableRow;horizontal=0;startSize=0;swimlaneHead=0;swimlaneBody=0;fillColor=none;collapsible=0;dropTarget=0;points=[[0,0.5],[1,0.5]];portConstraint=eastwest;top=0;left=0;right=0;bottom=0;" parent="MUCrM97EPWxwLmfavEmk-75" vertex="1">
          <mxGeometry y="90" width="262.08000000000004" height="30" as="geometry" />
        </mxCell>
        <mxCell id="MUCrM97EPWxwLmfavEmk-83" value="" style="shape=partialRectangle;connectable=0;fillColor=none;top=0;left=0;bottom=0;right=0;editable=1;overflow=hidden;whiteSpace=wrap;html=1;" parent="MUCrM97EPWxwLmfavEmk-82" vertex="1">
          <mxGeometry width="30" height="30" as="geometry">
            <mxRectangle width="30" height="30" as="alternateBounds" />
          </mxGeometry>
        </mxCell>
        <mxCell id="MUCrM97EPWxwLmfavEmk-84" value="itemPrice (VARCHAR(20))" style="shape=partialRectangle;connectable=0;fillColor=none;top=0;left=0;bottom=0;right=0;align=left;spacingLeft=6;overflow=hidden;whiteSpace=wrap;html=1;" parent="MUCrM97EPWxwLmfavEmk-82" vertex="1">
          <mxGeometry x="30" width="232.08000000000004" height="30" as="geometry">
            <mxRectangle width="232.08000000000004" height="30" as="alternateBounds" />
          </mxGeometry>
        </mxCell>
        <mxCell id="MUCrM97EPWxwLmfavEmk-85" value="" style="shape=tableRow;horizontal=0;startSize=0;swimlaneHead=0;swimlaneBody=0;fillColor=none;collapsible=0;dropTarget=0;points=[[0,0.5],[1,0.5]];portConstraint=eastwest;top=0;left=0;right=0;bottom=0;" parent="MUCrM97EPWxwLmfavEmk-75" vertex="1">
          <mxGeometry y="120" width="262.08000000000004" height="30" as="geometry" />
        </mxCell>
        <mxCell id="MUCrM97EPWxwLmfavEmk-86" value="" style="shape=partialRectangle;connectable=0;fillColor=none;top=0;left=0;bottom=0;right=0;editable=1;overflow=hidden;whiteSpace=wrap;html=1;" parent="MUCrM97EPWxwLmfavEmk-85" vertex="1">
          <mxGeometry width="30" height="30" as="geometry">
            <mxRectangle width="30" height="30" as="alternateBounds" />
          </mxGeometry>
        </mxCell>
        <mxCell id="MUCrM97EPWxwLmfavEmk-87" value="itemStockCount (INT)" style="shape=partialRectangle;connectable=0;fillColor=none;top=0;left=0;bottom=0;right=0;align=left;spacingLeft=6;overflow=hidden;whiteSpace=wrap;html=1;" parent="MUCrM97EPWxwLmfavEmk-85" vertex="1">
          <mxGeometry x="30" width="232.08000000000004" height="30" as="geometry">
            <mxRectangle width="232.08000000000004" height="30" as="alternateBounds" />
          </mxGeometry>
        </mxCell>
        <mxCell id="MUCrM97EPWxwLmfavEmk-89" value="menuID " style="shape=partialRectangle;connectable=0;fillColor=none;top=0;left=0;bottom=0;right=0;align=left;spacingLeft=6;overflow=hidden;whiteSpace=wrap;html=1;" parent="MUCrM97EPWxwLmfavEmk-74" vertex="1">
          <mxGeometry x="30" y="152.60000000000002" width="234.00000000000003" height="19.2" as="geometry">
            <mxRectangle width="250" height="30" as="alternateBounds" />
          </mxGeometry>
        </mxCell>
        <mxCell id="F6gitvyjOKPY-e4v-dXt-18" value="&lt;b&gt;FK&lt;/b&gt;" style="shape=partialRectangle;connectable=0;fillColor=none;top=0;left=0;bottom=0;right=0;editable=1;overflow=hidden;whiteSpace=wrap;html=1;" vertex="1" parent="MUCrM97EPWxwLmfavEmk-74">
          <mxGeometry y="148.34285714285716" width="30" height="25.714285714285715" as="geometry">
            <mxRectangle width="30" height="30" as="alternateBounds" />
          </mxGeometry>
        </mxCell>
        <mxCell id="MUCrM97EPWxwLmfavEmk-91" value="" style="group" parent="1" vertex="1" connectable="0">
          <mxGeometry x="680" y="640" width="292.5" height="180" as="geometry" />
        </mxCell>
        <mxCell id="MUCrM97EPWxwLmfavEmk-92" value="" style="group" parent="MUCrM97EPWxwLmfavEmk-91" vertex="1" connectable="0">
          <mxGeometry x="-5" y="-10" width="292.5" height="115.19999999999999" as="geometry" />
        </mxCell>
        <mxCell id="MUCrM97EPWxwLmfavEmk-93" value="" style="group" parent="MUCrM97EPWxwLmfavEmk-92" vertex="1" connectable="0">
          <mxGeometry x="30.42" width="262.08000000000004" height="115.19999999999999" as="geometry" />
        </mxCell>
        <mxCell id="MUCrM97EPWxwLmfavEmk-94" value="&lt;strong&gt;Shift&lt;/strong&gt;" style="shape=table;startSize=30;container=1;collapsible=1;childLayout=tableLayout;fixedRows=1;rowLines=0;fontStyle=1;align=center;resizeLast=1;html=1;" parent="MUCrM97EPWxwLmfavEmk-93" vertex="1">
          <mxGeometry width="262.08000000000004" height="150" as="geometry" />
        </mxCell>
        <mxCell id="MUCrM97EPWxwLmfavEmk-95" value="" style="shape=tableRow;horizontal=0;startSize=0;swimlaneHead=0;swimlaneBody=0;fillColor=none;collapsible=0;dropTarget=0;points=[[0,0.5],[1,0.5]];portConstraint=eastwest;top=0;left=0;right=0;bottom=1;" parent="MUCrM97EPWxwLmfavEmk-94" vertex="1">
          <mxGeometry y="30" width="262.08000000000004" height="30" as="geometry" />
        </mxCell>
        <mxCell id="MUCrM97EPWxwLmfavEmk-96" value="PK" style="shape=partialRectangle;connectable=0;fillColor=none;top=0;left=0;bottom=0;right=0;fontStyle=1;overflow=hidden;whiteSpace=wrap;html=1;" parent="MUCrM97EPWxwLmfavEmk-95" vertex="1">
          <mxGeometry width="30" height="30" as="geometry">
            <mxRectangle width="30" height="30" as="alternateBounds" />
          </mxGeometry>
        </mxCell>
        <mxCell id="MUCrM97EPWxwLmfavEmk-97" value="shiftID INT NOT NULL" style="shape=partialRectangle;connectable=0;fillColor=none;top=0;left=0;bottom=0;right=0;align=left;spacingLeft=6;fontStyle=5;overflow=hidden;whiteSpace=wrap;html=1;" parent="MUCrM97EPWxwLmfavEmk-95" vertex="1">
          <mxGeometry x="30" width="232.08000000000004" height="30" as="geometry">
            <mxRectangle width="232.08000000000004" height="30" as="alternateBounds" />
          </mxGeometry>
        </mxCell>
        <mxCell id="MUCrM97EPWxwLmfavEmk-98" value="" style="shape=tableRow;horizontal=0;startSize=0;swimlaneHead=0;swimlaneBody=0;fillColor=none;collapsible=0;dropTarget=0;points=[[0,0.5],[1,0.5]];portConstraint=eastwest;top=0;left=0;right=0;bottom=0;" parent="MUCrM97EPWxwLmfavEmk-94" vertex="1">
          <mxGeometry y="60" width="262.08000000000004" height="30" as="geometry" />
        </mxCell>
        <mxCell id="MUCrM97EPWxwLmfavEmk-99" value="" style="shape=partialRectangle;connectable=0;fillColor=none;top=0;left=0;bottom=0;right=0;editable=1;overflow=hidden;whiteSpace=wrap;html=1;" parent="MUCrM97EPWxwLmfavEmk-98" vertex="1">
          <mxGeometry width="30" height="30" as="geometry">
            <mxRectangle width="30" height="30" as="alternateBounds" />
          </mxGeometry>
        </mxCell>
        <mxCell id="MUCrM97EPWxwLmfavEmk-100" value="employeeID" style="shape=partialRectangle;connectable=0;fillColor=none;top=0;left=0;bottom=0;right=0;align=left;spacingLeft=6;overflow=hidden;whiteSpace=wrap;html=1;" parent="MUCrM97EPWxwLmfavEmk-98" vertex="1">
          <mxGeometry x="30" width="232.08000000000004" height="30" as="geometry">
            <mxRectangle width="232.08000000000004" height="30" as="alternateBounds" />
          </mxGeometry>
        </mxCell>
        <mxCell id="MUCrM97EPWxwLmfavEmk-101" value="" style="shape=tableRow;horizontal=0;startSize=0;swimlaneHead=0;swimlaneBody=0;fillColor=none;collapsible=0;dropTarget=0;points=[[0,0.5],[1,0.5]];portConstraint=eastwest;top=0;left=0;right=0;bottom=0;" parent="MUCrM97EPWxwLmfavEmk-94" vertex="1">
          <mxGeometry y="90" width="262.08000000000004" height="30" as="geometry" />
        </mxCell>
        <mxCell id="MUCrM97EPWxwLmfavEmk-102" value="" style="shape=partialRectangle;connectable=0;fillColor=none;top=0;left=0;bottom=0;right=0;editable=1;overflow=hidden;whiteSpace=wrap;html=1;" parent="MUCrM97EPWxwLmfavEmk-101" vertex="1">
          <mxGeometry width="30" height="30" as="geometry">
            <mxRectangle width="30" height="30" as="alternateBounds" />
          </mxGeometry>
        </mxCell>
        <mxCell id="MUCrM97EPWxwLmfavEmk-103" value="shiftStartTime (DATETIME)" style="shape=partialRectangle;connectable=0;fillColor=none;top=0;left=0;bottom=0;right=0;align=left;spacingLeft=6;overflow=hidden;whiteSpace=wrap;html=1;" parent="MUCrM97EPWxwLmfavEmk-101" vertex="1">
          <mxGeometry x="30" width="232.08000000000004" height="30" as="geometry">
            <mxRectangle width="232.08000000000004" height="30" as="alternateBounds" />
          </mxGeometry>
        </mxCell>
        <mxCell id="MUCrM97EPWxwLmfavEmk-104" value="" style="shape=tableRow;horizontal=0;startSize=0;swimlaneHead=0;swimlaneBody=0;fillColor=none;collapsible=0;dropTarget=0;points=[[0,0.5],[1,0.5]];portConstraint=eastwest;top=0;left=0;right=0;bottom=0;" parent="MUCrM97EPWxwLmfavEmk-94" vertex="1">
          <mxGeometry y="120" width="262.08000000000004" height="30" as="geometry" />
        </mxCell>
        <mxCell id="MUCrM97EPWxwLmfavEmk-105" value="" style="shape=partialRectangle;connectable=0;fillColor=none;top=0;left=0;bottom=0;right=0;editable=1;overflow=hidden;whiteSpace=wrap;html=1;" parent="MUCrM97EPWxwLmfavEmk-104" vertex="1">
          <mxGeometry width="30" height="30" as="geometry">
            <mxRectangle width="30" height="30" as="alternateBounds" />
          </mxGeometry>
        </mxCell>
        <mxCell id="MUCrM97EPWxwLmfavEmk-106" value="shiftEndTime (DATETIME)" style="shape=partialRectangle;connectable=0;fillColor=none;top=0;left=0;bottom=0;right=0;align=left;spacingLeft=6;overflow=hidden;whiteSpace=wrap;html=1;" parent="MUCrM97EPWxwLmfavEmk-104" vertex="1">
          <mxGeometry x="30" width="232.08000000000004" height="30" as="geometry">
            <mxRectangle width="232.08000000000004" height="30" as="alternateBounds" />
          </mxGeometry>
        </mxCell>
        <mxCell id="MUCrM97EPWxwLmfavEmk-107" value="" style="shape=partialRectangle;connectable=0;fillColor=none;top=0;left=0;bottom=0;right=0;align=left;spacingLeft=6;overflow=hidden;whiteSpace=wrap;html=1;" parent="MUCrM97EPWxwLmfavEmk-93" vertex="1">
          <mxGeometry x="28.080000000000005" y="82.28571428571428" width="234.00000000000003" height="16.457142857142856" as="geometry">
            <mxRectangle width="250" height="30" as="alternateBounds" />
          </mxGeometry>
        </mxCell>
        <mxCell id="MUCrM97EPWxwLmfavEmk-109" value="&lt;b&gt;FK&lt;/b&gt;" style="shape=partialRectangle;connectable=0;fillColor=none;top=0;left=0;bottom=0;right=0;editable=1;overflow=hidden;whiteSpace=wrap;html=1;" parent="MUCrM97EPWxwLmfavEmk-93" vertex="1">
          <mxGeometry y="62.14285714285711" width="30" height="25.714285714285715" as="geometry">
            <mxRectangle width="30" height="30" as="alternateBounds" />
          </mxGeometry>
        </mxCell>
        <mxCell id="MUCrM97EPWxwLmfavEmk-111" value="" style="edgeStyle=entityRelationEdgeStyle;fontSize=12;html=1;endArrow=ERmany;rounded=0;" parent="1" source="MUCrM97EPWxwLmfavEmk-36" target="MUCrM97EPWxwLmfavEmk-98" edge="1">
          <mxGeometry width="100" height="100" relative="1" as="geometry">
            <mxPoint x="1017.5" y="90" as="sourcePoint" />
            <mxPoint x="460" y="795" as="targetPoint" />
          </mxGeometry>
        </mxCell>
        <mxCell id="MUCrM97EPWxwLmfavEmk-113" value="" style="group" parent="1" vertex="1" connectable="0">
          <mxGeometry x="920" y="80.13" width="312.5" height="210" as="geometry" />
        </mxCell>
        <mxCell id="MUCrM97EPWxwLmfavEmk-114" value="" style="group" parent="MUCrM97EPWxwLmfavEmk-113" vertex="1" connectable="0">
          <mxGeometry x="32.5" width="280" height="180" as="geometry" />
        </mxCell>
        <mxCell id="MUCrM97EPWxwLmfavEmk-116" value="" style="group" parent="MUCrM97EPWxwLmfavEmk-114" vertex="1" connectable="0">
          <mxGeometry width="280" height="180" as="geometry" />
        </mxCell>
        <mxCell id="MUCrM97EPWxwLmfavEmk-117" value="&lt;strong&gt;OrderItem&lt;/strong&gt;" style="shape=table;startSize=30;container=1;collapsible=1;childLayout=tableLayout;fixedRows=1;rowLines=0;fontStyle=1;align=center;resizeLast=1;html=1;" parent="MUCrM97EPWxwLmfavEmk-116" vertex="1">
          <mxGeometry width="280" height="150" as="geometry" />
        </mxCell>
        <mxCell id="MUCrM97EPWxwLmfavEmk-118" value="" style="shape=tableRow;horizontal=0;startSize=0;swimlaneHead=0;swimlaneBody=0;fillColor=none;collapsible=0;dropTarget=0;points=[[0,0.5],[1,0.5]];portConstraint=eastwest;top=0;left=0;right=0;bottom=1;" parent="MUCrM97EPWxwLmfavEmk-117" vertex="1">
          <mxGeometry y="30" width="280" height="30" as="geometry" />
        </mxCell>
        <mxCell id="MUCrM97EPWxwLmfavEmk-119" value="PK" style="shape=partialRectangle;connectable=0;fillColor=none;top=0;left=0;bottom=0;right=0;fontStyle=1;overflow=hidden;whiteSpace=wrap;html=1;" parent="MUCrM97EPWxwLmfavEmk-118" vertex="1">
          <mxGeometry width="30" height="30" as="geometry">
            <mxRectangle width="30" height="30" as="alternateBounds" />
          </mxGeometry>
        </mxCell>
        <mxCell id="MUCrM97EPWxwLmfavEmk-120" value="orderItemID INT NOT NULL" style="shape=partialRectangle;connectable=0;fillColor=none;top=0;left=0;bottom=0;right=0;align=left;spacingLeft=6;fontStyle=5;overflow=hidden;whiteSpace=wrap;html=1;" parent="MUCrM97EPWxwLmfavEmk-118" vertex="1">
          <mxGeometry x="30" width="250" height="30" as="geometry">
            <mxRectangle width="250" height="30" as="alternateBounds" />
          </mxGeometry>
        </mxCell>
        <mxCell id="MUCrM97EPWxwLmfavEmk-121" value="" style="shape=tableRow;horizontal=0;startSize=0;swimlaneHead=0;swimlaneBody=0;fillColor=none;collapsible=0;dropTarget=0;points=[[0,0.5],[1,0.5]];portConstraint=eastwest;top=0;left=0;right=0;bottom=0;" parent="MUCrM97EPWxwLmfavEmk-117" vertex="1">
          <mxGeometry y="60" width="280" height="30" as="geometry" />
        </mxCell>
        <mxCell id="MUCrM97EPWxwLmfavEmk-122" value="&lt;b&gt;FK&lt;/b&gt;" style="shape=partialRectangle;connectable=0;fillColor=none;top=0;left=0;bottom=0;right=0;editable=1;overflow=hidden;whiteSpace=wrap;html=1;" parent="MUCrM97EPWxwLmfavEmk-121" vertex="1">
          <mxGeometry width="30" height="30" as="geometry">
            <mxRectangle width="30" height="30" as="alternateBounds" />
          </mxGeometry>
        </mxCell>
        <mxCell id="MUCrM97EPWxwLmfavEmk-123" value="orderingID&amp;nbsp; ( VARCHAR(10))" style="shape=partialRectangle;connectable=0;fillColor=none;top=0;left=0;bottom=0;right=0;align=left;spacingLeft=6;overflow=hidden;whiteSpace=wrap;html=1;" parent="MUCrM97EPWxwLmfavEmk-121" vertex="1">
          <mxGeometry x="30" width="250" height="30" as="geometry">
            <mxRectangle width="250" height="30" as="alternateBounds" />
          </mxGeometry>
        </mxCell>
        <mxCell id="MUCrM97EPWxwLmfavEmk-124" value="" style="shape=tableRow;horizontal=0;startSize=0;swimlaneHead=0;swimlaneBody=0;fillColor=none;collapsible=0;dropTarget=0;points=[[0,0.5],[1,0.5]];portConstraint=eastwest;top=0;left=0;right=0;bottom=0;" parent="MUCrM97EPWxwLmfavEmk-117" vertex="1">
          <mxGeometry y="90" width="280" height="30" as="geometry" />
        </mxCell>
        <mxCell id="MUCrM97EPWxwLmfavEmk-125" value="" style="shape=partialRectangle;connectable=0;fillColor=none;top=0;left=0;bottom=0;right=0;editable=1;overflow=hidden;whiteSpace=wrap;html=1;" parent="MUCrM97EPWxwLmfavEmk-124" vertex="1">
          <mxGeometry width="30" height="30" as="geometry">
            <mxRectangle width="30" height="30" as="alternateBounds" />
          </mxGeometry>
        </mxCell>
        <mxCell id="MUCrM97EPWxwLmfavEmk-126" value="itemID  ( VARCHAR(10))" style="shape=partialRectangle;connectable=0;fillColor=none;top=0;left=0;bottom=0;right=0;align=left;spacingLeft=6;overflow=hidden;whiteSpace=wrap;html=1;" parent="MUCrM97EPWxwLmfavEmk-124" vertex="1">
          <mxGeometry x="30" width="250" height="30" as="geometry">
            <mxRectangle width="250" height="30" as="alternateBounds" />
          </mxGeometry>
        </mxCell>
        <mxCell id="MUCrM97EPWxwLmfavEmk-127" value="" style="shape=tableRow;horizontal=0;startSize=0;swimlaneHead=0;swimlaneBody=0;fillColor=none;collapsible=0;dropTarget=0;points=[[0,0.5],[1,0.5]];portConstraint=eastwest;top=0;left=0;right=0;bottom=0;" parent="MUCrM97EPWxwLmfavEmk-117" vertex="1">
          <mxGeometry y="120" width="280" height="30" as="geometry" />
        </mxCell>
        <mxCell id="MUCrM97EPWxwLmfavEmk-128" value="" style="shape=partialRectangle;connectable=0;fillColor=none;top=0;left=0;bottom=0;right=0;editable=1;overflow=hidden;whiteSpace=wrap;html=1;" parent="MUCrM97EPWxwLmfavEmk-127" vertex="1">
          <mxGeometry width="30" height="30" as="geometry">
            <mxRectangle width="30" height="30" as="alternateBounds" />
          </mxGeometry>
        </mxCell>
        <mxCell id="MUCrM97EPWxwLmfavEmk-129" value="orderItemQuantity (INT)" style="shape=partialRectangle;connectable=0;fillColor=none;top=0;left=0;bottom=0;right=0;align=left;spacingLeft=6;overflow=hidden;whiteSpace=wrap;html=1;" parent="MUCrM97EPWxwLmfavEmk-127" vertex="1">
          <mxGeometry x="30" width="250" height="30" as="geometry">
            <mxRectangle width="250" height="30" as="alternateBounds" />
          </mxGeometry>
        </mxCell>
        <mxCell id="MUCrM97EPWxwLmfavEmk-130" value="&lt;b&gt;FK&lt;/b&gt;" style="shape=partialRectangle;connectable=0;fillColor=none;top=0;left=0;bottom=0;right=0;editable=1;overflow=hidden;whiteSpace=wrap;html=1;" parent="MUCrM97EPWxwLmfavEmk-116" vertex="1">
          <mxGeometry y="90.00285714285714" width="30" height="25.714285714285715" as="geometry">
            <mxRectangle width="30" height="30" as="alternateBounds" />
          </mxGeometry>
        </mxCell>
        <mxCell id="MUCrM97EPWxwLmfavEmk-131" value="" style="edgeStyle=entityRelationEdgeStyle;endArrow=ERzeroToMany;startArrow=ERone;endFill=1;startFill=0;exitX=1;exitY=0.5;exitDx=0;exitDy=0;" parent="1" source="MUCrM97EPWxwLmfavEmk-53" target="MUCrM97EPWxwLmfavEmk-121" edge="1">
          <mxGeometry width="100" height="100" relative="1" as="geometry">
            <mxPoint x="582" y="355" as="sourcePoint" />
            <mxPoint x="855" y="490" as="targetPoint" />
          </mxGeometry>
        </mxCell>
        <mxCell id="MUCrM97EPWxwLmfavEmk-132" value="" style="edgeStyle=entityRelationEdgeStyle;fontSize=12;html=1;endArrow=ERmandOne;startArrow=ERmandOne;rounded=0;" parent="1" source="MUCrM97EPWxwLmfavEmk-76" target="MUCrM97EPWxwLmfavEmk-124" edge="1">
          <mxGeometry width="100" height="100" relative="1" as="geometry">
            <mxPoint x="867.9200000000001" y="627.2" as="sourcePoint" />
            <mxPoint x="880" y="370" as="targetPoint" />
          </mxGeometry>
        </mxCell>
        <mxCell id="F6gitvyjOKPY-e4v-dXt-1" value="" style="group" vertex="1" connectable="0" parent="1">
          <mxGeometry x="1000" y="640" width="292.50000000000006" height="180" as="geometry" />
        </mxCell>
        <mxCell id="F6gitvyjOKPY-e4v-dXt-2" value="" style="group" vertex="1" connectable="0" parent="F6gitvyjOKPY-e4v-dXt-1">
          <mxGeometry y="7.199999999999999" width="292.50000000000006" height="130" as="geometry" />
        </mxCell>
        <mxCell id="F6gitvyjOKPY-e4v-dXt-3" value="" style="group" vertex="1" connectable="0" parent="F6gitvyjOKPY-e4v-dXt-2">
          <mxGeometry x="30.42" width="262.08000000000004" height="130" as="geometry" />
        </mxCell>
        <mxCell id="F6gitvyjOKPY-e4v-dXt-4" value="&lt;strong&gt;Menu&lt;/strong&gt;" style="shape=table;startSize=30;container=1;collapsible=1;childLayout=tableLayout;fixedRows=1;rowLines=0;fontStyle=1;align=center;resizeLast=1;html=1;" vertex="1" parent="F6gitvyjOKPY-e4v-dXt-3">
          <mxGeometry width="262.08" height="120" as="geometry" />
        </mxCell>
        <mxCell id="F6gitvyjOKPY-e4v-dXt-5" value="" style="shape=tableRow;horizontal=0;startSize=0;swimlaneHead=0;swimlaneBody=0;fillColor=none;collapsible=0;dropTarget=0;points=[[0,0.5],[1,0.5]];portConstraint=eastwest;top=0;left=0;right=0;bottom=1;" vertex="1" parent="F6gitvyjOKPY-e4v-dXt-4">
          <mxGeometry y="30" width="262.08" height="30" as="geometry" />
        </mxCell>
        <mxCell id="F6gitvyjOKPY-e4v-dXt-6" value="PK" style="shape=partialRectangle;connectable=0;fillColor=none;top=0;left=0;bottom=0;right=0;fontStyle=1;overflow=hidden;whiteSpace=wrap;html=1;" vertex="1" parent="F6gitvyjOKPY-e4v-dXt-5">
          <mxGeometry width="30" height="30" as="geometry">
            <mxRectangle width="30" height="30" as="alternateBounds" />
          </mxGeometry>
        </mxCell>
        <mxCell id="F6gitvyjOKPY-e4v-dXt-7" value="menuID&amp;nbsp; INT NOT NULL" style="shape=partialRectangle;connectable=0;fillColor=none;top=0;left=0;bottom=0;right=0;align=left;spacingLeft=6;fontStyle=5;overflow=hidden;whiteSpace=wrap;html=1;" vertex="1" parent="F6gitvyjOKPY-e4v-dXt-5">
          <mxGeometry x="30" width="232.07999999999998" height="30" as="geometry">
            <mxRectangle width="232.07999999999998" height="30" as="alternateBounds" />
          </mxGeometry>
        </mxCell>
        <mxCell id="F6gitvyjOKPY-e4v-dXt-8" value="" style="shape=tableRow;horizontal=0;startSize=0;swimlaneHead=0;swimlaneBody=0;fillColor=none;collapsible=0;dropTarget=0;points=[[0,0.5],[1,0.5]];portConstraint=eastwest;top=0;left=0;right=0;bottom=0;" vertex="1" parent="F6gitvyjOKPY-e4v-dXt-4">
          <mxGeometry y="60" width="262.08" height="30" as="geometry" />
        </mxCell>
        <mxCell id="F6gitvyjOKPY-e4v-dXt-9" value="" style="shape=partialRectangle;connectable=0;fillColor=none;top=0;left=0;bottom=0;right=0;editable=1;overflow=hidden;whiteSpace=wrap;html=1;" vertex="1" parent="F6gitvyjOKPY-e4v-dXt-8">
          <mxGeometry width="30" height="30" as="geometry">
            <mxRectangle width="30" height="30" as="alternateBounds" />
          </mxGeometry>
        </mxCell>
        <mxCell id="F6gitvyjOKPY-e4v-dXt-10" value="menuName (VARCHAR(100))" style="shape=partialRectangle;connectable=0;fillColor=none;top=0;left=0;bottom=0;right=0;align=left;spacingLeft=6;overflow=hidden;whiteSpace=wrap;html=1;" vertex="1" parent="F6gitvyjOKPY-e4v-dXt-8">
          <mxGeometry x="30" width="232.07999999999998" height="30" as="geometry">
            <mxRectangle width="232.07999999999998" height="30" as="alternateBounds" />
          </mxGeometry>
        </mxCell>
        <mxCell id="F6gitvyjOKPY-e4v-dXt-11" value="" style="shape=tableRow;horizontal=0;startSize=0;swimlaneHead=0;swimlaneBody=0;fillColor=none;collapsible=0;dropTarget=0;points=[[0,0.5],[1,0.5]];portConstraint=eastwest;top=0;left=0;right=0;bottom=0;" vertex="1" parent="F6gitvyjOKPY-e4v-dXt-4">
          <mxGeometry y="90" width="262.08" height="30" as="geometry" />
        </mxCell>
        <mxCell id="F6gitvyjOKPY-e4v-dXt-12" value="" style="shape=partialRectangle;connectable=0;fillColor=none;top=0;left=0;bottom=0;right=0;editable=1;overflow=hidden;whiteSpace=wrap;html=1;" vertex="1" parent="F6gitvyjOKPY-e4v-dXt-11">
          <mxGeometry width="30" height="30" as="geometry">
            <mxRectangle width="30" height="30" as="alternateBounds" />
          </mxGeometry>
        </mxCell>
        <mxCell id="F6gitvyjOKPY-e4v-dXt-13" value="MenuType (VARCHAR(20))" style="shape=partialRectangle;connectable=0;fillColor=none;top=0;left=0;bottom=0;right=0;align=left;spacingLeft=6;overflow=hidden;whiteSpace=wrap;html=1;" vertex="1" parent="F6gitvyjOKPY-e4v-dXt-11">
          <mxGeometry x="30" width="232.07999999999998" height="30" as="geometry">
            <mxRectangle width="232.07999999999998" height="30" as="alternateBounds" />
          </mxGeometry>
        </mxCell>
        <mxCell id="F6gitvyjOKPY-e4v-dXt-17" value="" style="shape=partialRectangle;connectable=0;fillColor=none;top=0;left=0;bottom=0;right=0;align=left;spacingLeft=6;overflow=hidden;whiteSpace=wrap;html=1;" vertex="1" parent="F6gitvyjOKPY-e4v-dXt-3">
          <mxGeometry x="28.080000000000005" y="82.28571428571428" width="234.00000000000003" height="16.457142857142856" as="geometry">
            <mxRectangle width="250" height="30" as="alternateBounds" />
          </mxGeometry>
        </mxCell>
        <mxCell id="F6gitvyjOKPY-e4v-dXt-19" value="" style="edgeStyle=entityRelationEdgeStyle;fontSize=12;html=1;endArrow=ERmandOne;startArrow=ERmandOne;rounded=0;exitX=1;exitY=0.5;exitDx=0;exitDy=0;" edge="1" parent="1" source="F6gitvyjOKPY-e4v-dXt-5">
          <mxGeometry width="100" height="100" relative="1" as="geometry">
            <mxPoint x="900" y="670" as="sourcePoint" />
            <mxPoint x="1380" y="550" as="targetPoint" />
            <Array as="points">
              <mxPoint x="1410" y="950" />
              <mxPoint x="870" y="610" />
              <mxPoint x="850" y="640" />
              <mxPoint x="860" y="620" />
            </Array>
          </mxGeometry>
        </mxCell>
        <mxCell id="F6gitvyjOKPY-e4v-dXt-27" value="" style="group" vertex="1" connectable="0" parent="1">
          <mxGeometry x="50" y="330" width="280" height="270" as="geometry" />
        </mxCell>
        <mxCell id="F6gitvyjOKPY-e4v-dXt-28" value="payment&lt;span style=&quot;white-space: pre;&quot;&gt;&#x9;&lt;/span&gt;" style="shape=table;startSize=30;container=1;collapsible=1;childLayout=tableLayout;fixedRows=1;rowLines=0;fontStyle=1;align=center;resizeLast=1;html=1;" vertex="1" parent="F6gitvyjOKPY-e4v-dXt-27">
          <mxGeometry width="280" height="240" as="geometry" />
        </mxCell>
        <mxCell id="F6gitvyjOKPY-e4v-dXt-29" value="" style="shape=tableRow;horizontal=0;startSize=0;swimlaneHead=0;swimlaneBody=0;fillColor=none;collapsible=0;dropTarget=0;points=[[0,0.5],[1,0.5]];portConstraint=eastwest;top=0;left=0;right=0;bottom=1;" vertex="1" parent="F6gitvyjOKPY-e4v-dXt-28">
          <mxGeometry y="30" width="280" height="30" as="geometry" />
        </mxCell>
        <mxCell id="F6gitvyjOKPY-e4v-dXt-30" value="PK" style="shape=partialRectangle;connectable=0;fillColor=none;top=0;left=0;bottom=0;right=0;fontStyle=1;overflow=hidden;whiteSpace=wrap;html=1;" vertex="1" parent="F6gitvyjOKPY-e4v-dXt-29">
          <mxGeometry width="30" height="30" as="geometry">
            <mxRectangle width="30" height="30" as="alternateBounds" />
          </mxGeometry>
        </mxCell>
        <mxCell id="F6gitvyjOKPY-e4v-dXt-31" value="paymentID int NOT NULL&amp;nbsp;" style="shape=partialRectangle;connectable=0;fillColor=none;top=0;left=0;bottom=0;right=0;align=left;spacingLeft=6;fontStyle=5;overflow=hidden;whiteSpace=wrap;html=1;" vertex="1" parent="F6gitvyjOKPY-e4v-dXt-29">
          <mxGeometry x="30" width="250" height="30" as="geometry">
            <mxRectangle width="250" height="30" as="alternateBounds" />
          </mxGeometry>
        </mxCell>
        <mxCell id="F6gitvyjOKPY-e4v-dXt-32" value="" style="shape=tableRow;horizontal=0;startSize=0;swimlaneHead=0;swimlaneBody=0;fillColor=none;collapsible=0;dropTarget=0;points=[[0,0.5],[1,0.5]];portConstraint=eastwest;top=0;left=0;right=0;bottom=0;" vertex="1" parent="F6gitvyjOKPY-e4v-dXt-28">
          <mxGeometry y="60" width="280" height="30" as="geometry" />
        </mxCell>
        <mxCell id="F6gitvyjOKPY-e4v-dXt-33" value="" style="shape=partialRectangle;connectable=0;fillColor=none;top=0;left=0;bottom=0;right=0;editable=1;overflow=hidden;whiteSpace=wrap;html=1;" vertex="1" parent="F6gitvyjOKPY-e4v-dXt-32">
          <mxGeometry width="30" height="30" as="geometry">
            <mxRectangle width="30" height="30" as="alternateBounds" />
          </mxGeometry>
        </mxCell>
        <mxCell id="F6gitvyjOKPY-e4v-dXt-34" value="paymentAmount (VARCHAR(50))" style="shape=partialRectangle;connectable=0;fillColor=none;top=0;left=0;bottom=0;right=0;align=left;spacingLeft=6;overflow=hidden;whiteSpace=wrap;html=1;" vertex="1" parent="F6gitvyjOKPY-e4v-dXt-32">
          <mxGeometry x="30" width="250" height="30" as="geometry">
            <mxRectangle width="250" height="30" as="alternateBounds" />
          </mxGeometry>
        </mxCell>
        <mxCell id="F6gitvyjOKPY-e4v-dXt-35" value="" style="shape=tableRow;horizontal=0;startSize=0;swimlaneHead=0;swimlaneBody=0;fillColor=none;collapsible=0;dropTarget=0;points=[[0,0.5],[1,0.5]];portConstraint=eastwest;top=0;left=0;right=0;bottom=0;" vertex="1" parent="F6gitvyjOKPY-e4v-dXt-28">
          <mxGeometry y="90" width="280" height="30" as="geometry" />
        </mxCell>
        <mxCell id="F6gitvyjOKPY-e4v-dXt-36" value="" style="shape=partialRectangle;connectable=0;fillColor=none;top=0;left=0;bottom=0;right=0;editable=1;overflow=hidden;whiteSpace=wrap;html=1;" vertex="1" parent="F6gitvyjOKPY-e4v-dXt-35">
          <mxGeometry width="30" height="30" as="geometry">
            <mxRectangle width="30" height="30" as="alternateBounds" />
          </mxGeometry>
        </mxCell>
        <mxCell id="F6gitvyjOKPY-e4v-dXt-37" value="accountNo (VARCHAR(50))" style="shape=partialRectangle;connectable=0;fillColor=none;top=0;left=0;bottom=0;right=0;align=left;spacingLeft=6;overflow=hidden;whiteSpace=wrap;html=1;" vertex="1" parent="F6gitvyjOKPY-e4v-dXt-35">
          <mxGeometry x="30" width="250" height="30" as="geometry">
            <mxRectangle width="250" height="30" as="alternateBounds" />
          </mxGeometry>
        </mxCell>
        <mxCell id="F6gitvyjOKPY-e4v-dXt-38" value="" style="shape=tableRow;horizontal=0;startSize=0;swimlaneHead=0;swimlaneBody=0;fillColor=none;collapsible=0;dropTarget=0;points=[[0,0.5],[1,0.5]];portConstraint=eastwest;top=0;left=0;right=0;bottom=0;" vertex="1" parent="F6gitvyjOKPY-e4v-dXt-28">
          <mxGeometry y="120" width="280" height="30" as="geometry" />
        </mxCell>
        <mxCell id="F6gitvyjOKPY-e4v-dXt-39" value="" style="shape=partialRectangle;connectable=0;fillColor=none;top=0;left=0;bottom=0;right=0;editable=1;overflow=hidden;whiteSpace=wrap;html=1;" vertex="1" parent="F6gitvyjOKPY-e4v-dXt-38">
          <mxGeometry width="30" height="30" as="geometry">
            <mxRectangle width="30" height="30" as="alternateBounds" />
          </mxGeometry>
        </mxCell>
        <mxCell id="F6gitvyjOKPY-e4v-dXt-40" value="bsbNo (VARCHAR(50))" style="shape=partialRectangle;connectable=0;fillColor=none;top=0;left=0;bottom=0;right=0;align=left;spacingLeft=6;overflow=hidden;whiteSpace=wrap;html=1;" vertex="1" parent="F6gitvyjOKPY-e4v-dXt-38">
          <mxGeometry x="30" width="250" height="30" as="geometry">
            <mxRectangle width="250" height="30" as="alternateBounds" />
          </mxGeometry>
        </mxCell>
        <mxCell id="F6gitvyjOKPY-e4v-dXt-41" value="paymentType (VARCHAR(100))" style="shape=partialRectangle;connectable=0;fillColor=none;top=0;left=0;bottom=0;right=0;align=left;spacingLeft=6;overflow=hidden;whiteSpace=wrap;html=1;" vertex="1" parent="F6gitvyjOKPY-e4v-dXt-27">
          <mxGeometry x="30" y="177.9262068965517" width="250" height="27.931034482758612" as="geometry">
            <mxRectangle width="250" height="30" as="alternateBounds" />
          </mxGeometry>
        </mxCell>
        <mxCell id="F6gitvyjOKPY-e4v-dXt-42" value="customerID (VARCHAR(15))" style="shape=partialRectangle;connectable=0;fillColor=none;top=0;left=0;bottom=0;right=0;align=left;spacingLeft=6;overflow=hidden;whiteSpace=wrap;html=1;" vertex="1" parent="F6gitvyjOKPY-e4v-dXt-27">
          <mxGeometry x="30" y="207.5872413793103" width="250" height="27.931034482758612" as="geometry">
            <mxRectangle width="250" height="30" as="alternateBounds" />
          </mxGeometry>
        </mxCell>
        <mxCell id="F6gitvyjOKPY-e4v-dXt-43" value="accountType (VARCHAR(10)) " style="shape=partialRectangle;connectable=0;fillColor=none;top=0;left=0;bottom=0;right=0;align=left;spacingLeft=6;overflow=hidden;whiteSpace=wrap;html=1;" vertex="1" parent="F6gitvyjOKPY-e4v-dXt-27">
          <mxGeometry x="30" y="149.99517241379309" width="250" height="27.931034482758612" as="geometry">
            <mxRectangle width="250" height="30" as="alternateBounds" />
          </mxGeometry>
        </mxCell>
        <mxCell id="F6gitvyjOKPY-e4v-dXt-44" value="&lt;b&gt;FK&lt;/b&gt;" style="text;whiteSpace=wrap;html=1;" vertex="1" parent="F6gitvyjOKPY-e4v-dXt-27">
          <mxGeometry x="10" y="205.85999999999999" width="50" height="40" as="geometry" />
        </mxCell>
        <mxCell id="F6gitvyjOKPY-e4v-dXt-45" value="" style="edgeStyle=entityRelationEdgeStyle;fontSize=12;html=1;endArrow=ERmandOne;startArrow=ERmandOne;rounded=0;exitX=1;exitY=0.5;exitDx=0;exitDy=0;" edge="1" parent="1" source="F6gitvyjOKPY-e4v-dXt-29">
          <mxGeometry width="100" height="100" relative="1" as="geometry">
            <mxPoint x="480" y="380" as="sourcePoint" />
            <mxPoint x="550" y="310" as="targetPoint" />
            <Array as="points">
              <mxPoint x="450" y="370" />
              <mxPoint x="450" y="360" />
              <mxPoint x="420" y="340" />
              <mxPoint x="441" y="360" />
              <mxPoint x="420" y="360" />
              <mxPoint x="-110" y="420" />
              <mxPoint x="-130" y="450" />
              <mxPoint x="-120" y="430" />
            </Array>
          </mxGeometry>
        </mxCell>
        <mxCell id="F6gitvyjOKPY-e4v-dXt-49" value="" style="edgeStyle=entityRelationEdgeStyle;endArrow=ERzeroToMany;startArrow=ERone;endFill=1;startFill=0;exitX=1;exitY=0.5;exitDx=0;exitDy=0;" edge="1" parent="1" source="MUCrM97EPWxwLmfavEmk-14">
          <mxGeometry width="100" height="100" relative="1" as="geometry">
            <mxPoint x="-200" y="150" as="sourcePoint" />
            <mxPoint x="40" y="550" as="targetPoint" />
            <Array as="points">
              <mxPoint x="-20" y="-230" />
              <mxPoint x="40" y="-200" />
              <mxPoint x="40" y="-190" />
              <mxPoint x="-290" y="-250" />
            </Array>
          </mxGeometry>
        </mxCell>
        <mxCell id="F6gitvyjOKPY-e4v-dXt-57" value="" style="group" vertex="1" connectable="0" parent="1">
          <mxGeometry x="-210" y="740" width="280" height="270" as="geometry" />
        </mxCell>
        <mxCell id="F6gitvyjOKPY-e4v-dXt-58" value="outlet&lt;span style=&quot;white-space: pre;&quot;&gt;&#x9;&lt;/span&gt;" style="shape=table;startSize=30;container=1;collapsible=1;childLayout=tableLayout;fixedRows=1;rowLines=0;fontStyle=1;align=center;resizeLast=1;html=1;" vertex="1" parent="F6gitvyjOKPY-e4v-dXt-57">
          <mxGeometry width="280" height="180" as="geometry" />
        </mxCell>
        <mxCell id="F6gitvyjOKPY-e4v-dXt-59" value="" style="shape=tableRow;horizontal=0;startSize=0;swimlaneHead=0;swimlaneBody=0;fillColor=none;collapsible=0;dropTarget=0;points=[[0,0.5],[1,0.5]];portConstraint=eastwest;top=0;left=0;right=0;bottom=1;" vertex="1" parent="F6gitvyjOKPY-e4v-dXt-58">
          <mxGeometry y="30" width="280" height="30" as="geometry" />
        </mxCell>
        <mxCell id="F6gitvyjOKPY-e4v-dXt-60" value="PK" style="shape=partialRectangle;connectable=0;fillColor=none;top=0;left=0;bottom=0;right=0;fontStyle=1;overflow=hidden;whiteSpace=wrap;html=1;" vertex="1" parent="F6gitvyjOKPY-e4v-dXt-59">
          <mxGeometry width="30" height="30" as="geometry">
            <mxRectangle width="30" height="30" as="alternateBounds" />
          </mxGeometry>
        </mxCell>
        <mxCell id="F6gitvyjOKPY-e4v-dXt-61" value="outletID int NOT NULL&amp;nbsp;" style="shape=partialRectangle;connectable=0;fillColor=none;top=0;left=0;bottom=0;right=0;align=left;spacingLeft=6;fontStyle=5;overflow=hidden;whiteSpace=wrap;html=1;" vertex="1" parent="F6gitvyjOKPY-e4v-dXt-59">
          <mxGeometry x="30" width="250" height="30" as="geometry">
            <mxRectangle width="250" height="30" as="alternateBounds" />
          </mxGeometry>
        </mxCell>
        <mxCell id="F6gitvyjOKPY-e4v-dXt-62" value="" style="shape=tableRow;horizontal=0;startSize=0;swimlaneHead=0;swimlaneBody=0;fillColor=none;collapsible=0;dropTarget=0;points=[[0,0.5],[1,0.5]];portConstraint=eastwest;top=0;left=0;right=0;bottom=0;" vertex="1" parent="F6gitvyjOKPY-e4v-dXt-58">
          <mxGeometry y="60" width="280" height="30" as="geometry" />
        </mxCell>
        <mxCell id="F6gitvyjOKPY-e4v-dXt-63" value="" style="shape=partialRectangle;connectable=0;fillColor=none;top=0;left=0;bottom=0;right=0;editable=1;overflow=hidden;whiteSpace=wrap;html=1;" vertex="1" parent="F6gitvyjOKPY-e4v-dXt-62">
          <mxGeometry width="30" height="30" as="geometry">
            <mxRectangle width="30" height="30" as="alternateBounds" />
          </mxGeometry>
        </mxCell>
        <mxCell id="F6gitvyjOKPY-e4v-dXt-64" value="outletSuburb(VARCHAR(50))" style="shape=partialRectangle;connectable=0;fillColor=none;top=0;left=0;bottom=0;right=0;align=left;spacingLeft=6;overflow=hidden;whiteSpace=wrap;html=1;" vertex="1" parent="F6gitvyjOKPY-e4v-dXt-62">
          <mxGeometry x="30" width="250" height="30" as="geometry">
            <mxRectangle width="250" height="30" as="alternateBounds" />
          </mxGeometry>
        </mxCell>
        <mxCell id="F6gitvyjOKPY-e4v-dXt-65" value="" style="shape=tableRow;horizontal=0;startSize=0;swimlaneHead=0;swimlaneBody=0;fillColor=none;collapsible=0;dropTarget=0;points=[[0,0.5],[1,0.5]];portConstraint=eastwest;top=0;left=0;right=0;bottom=0;" vertex="1" parent="F6gitvyjOKPY-e4v-dXt-58">
          <mxGeometry y="90" width="280" height="30" as="geometry" />
        </mxCell>
        <mxCell id="F6gitvyjOKPY-e4v-dXt-66" value="" style="shape=partialRectangle;connectable=0;fillColor=none;top=0;left=0;bottom=0;right=0;editable=1;overflow=hidden;whiteSpace=wrap;html=1;" vertex="1" parent="F6gitvyjOKPY-e4v-dXt-65">
          <mxGeometry width="30" height="30" as="geometry">
            <mxRectangle width="30" height="30" as="alternateBounds" />
          </mxGeometry>
        </mxCell>
        <mxCell id="F6gitvyjOKPY-e4v-dXt-67" value="outletPhone(VARCHAR(50))" style="shape=partialRectangle;connectable=0;fillColor=none;top=0;left=0;bottom=0;right=0;align=left;spacingLeft=6;overflow=hidden;whiteSpace=wrap;html=1;" vertex="1" parent="F6gitvyjOKPY-e4v-dXt-65">
          <mxGeometry x="30" width="250" height="30" as="geometry">
            <mxRectangle width="250" height="30" as="alternateBounds" />
          </mxGeometry>
        </mxCell>
        <mxCell id="F6gitvyjOKPY-e4v-dXt-68" value="" style="shape=tableRow;horizontal=0;startSize=0;swimlaneHead=0;swimlaneBody=0;fillColor=none;collapsible=0;dropTarget=0;points=[[0,0.5],[1,0.5]];portConstraint=eastwest;top=0;left=0;right=0;bottom=0;" vertex="1" parent="F6gitvyjOKPY-e4v-dXt-58">
          <mxGeometry y="120" width="280" height="30" as="geometry" />
        </mxCell>
        <mxCell id="F6gitvyjOKPY-e4v-dXt-69" value="" style="shape=partialRectangle;connectable=0;fillColor=none;top=0;left=0;bottom=0;right=0;editable=1;overflow=hidden;whiteSpace=wrap;html=1;" vertex="1" parent="F6gitvyjOKPY-e4v-dXt-68">
          <mxGeometry width="30" height="30" as="geometry">
            <mxRectangle width="30" height="30" as="alternateBounds" />
          </mxGeometry>
        </mxCell>
        <mxCell id="F6gitvyjOKPY-e4v-dXt-70" value="companyID (VARCHAR(50))" style="shape=partialRectangle;connectable=0;fillColor=none;top=0;left=0;bottom=0;right=0;align=left;spacingLeft=6;overflow=hidden;whiteSpace=wrap;html=1;" vertex="1" parent="F6gitvyjOKPY-e4v-dXt-68">
          <mxGeometry x="30" width="250" height="30" as="geometry">
            <mxRectangle width="250" height="30" as="alternateBounds" />
          </mxGeometry>
        </mxCell>
        <mxCell id="F6gitvyjOKPY-e4v-dXt-71" value="" style="shape=partialRectangle;connectable=0;fillColor=none;top=0;left=0;bottom=0;right=0;align=left;spacingLeft=6;overflow=hidden;whiteSpace=wrap;html=1;" vertex="1" parent="F6gitvyjOKPY-e4v-dXt-57">
          <mxGeometry x="30" y="177.9262068965517" width="250" height="27.931034482758612" as="geometry">
            <mxRectangle width="250" height="30" as="alternateBounds" />
          </mxGeometry>
        </mxCell>
        <mxCell id="F6gitvyjOKPY-e4v-dXt-73" value="companyName (VARCHAR(10)) " style="shape=partialRectangle;connectable=0;fillColor=none;top=0;left=0;bottom=0;right=0;align=left;spacingLeft=6;overflow=hidden;whiteSpace=wrap;html=1;" vertex="1" parent="F6gitvyjOKPY-e4v-dXt-57">
          <mxGeometry x="30" y="149.99517241379309" width="250" height="27.931034482758612" as="geometry">
            <mxRectangle width="250" height="30" as="alternateBounds" />
          </mxGeometry>
        </mxCell>
        <mxCell id="F6gitvyjOKPY-e4v-dXt-75" value="" style="edgeStyle=entityRelationEdgeStyle;fontSize=12;html=1;endArrow=ERmandOne;startArrow=ERmandOne;rounded=0;exitX=1;exitY=0.5;exitDx=0;exitDy=0;entryX=0;entryY=0.25;entryDx=0;entryDy=0;" edge="1" parent="1" source="F6gitvyjOKPY-e4v-dXt-59" target="F6gitvyjOKPY-e4v-dXt-56">
          <mxGeometry width="100" height="100" relative="1" as="geometry">
            <mxPoint x="-60" y="675" as="sourcePoint" />
            <mxPoint x="180" y="670" as="targetPoint" />
            <Array as="points">
              <mxPoint x="60" y="670" />
              <mxPoint x="60" y="660" />
              <mxPoint x="30" y="640" />
              <mxPoint x="51" y="660" />
              <mxPoint x="30" y="660" />
              <mxPoint x="-500" y="720" />
              <mxPoint x="-520" y="750" />
              <mxPoint x="-510" y="730" />
            </Array>
          </mxGeometry>
        </mxCell>
      </root>
    </mxGraphModel>
  </diagram>
</mxfile>
